#!OML:ASF H:\Dans Jumps\Project 1\Capture day 1\Session 1\subject.ASF
:FULLY-SPECIFIED
:DEGREES
774
root 0.785825 17.63 -10.1326 7.60629 -5.44541 -1.68242
lowerback 4.62658 -1.55743 -4.12644
upperback 4.24468 -2.2114 1.18092
thorax 1.99141 -1.2324 3.58975
lowerneck -8.92523 -6.95608 -4.93992
upperneck 5.28551 -9.12335 5.3023
head 3.87852 -4.40756 2.06154
rclavicle 4.96962e-015 5.1684e-015
rhumerus -22.92 -5.03188 -86.0649
rradius 27.0093
rwrist 27.2644
rhand -18.2696 -25.6242
rfingers 7.12502
rthumb 8.01018 -55.4524
lclavicle 4.96962e-015 5.1684e-015
lhumerus -16.8233 -2.97753 84.6492
lradius 22.2677
lwrist 11.6735
lhand -29.0309 -5.56528
lfingers 7.12502
lthumb -2.38156 24.4012
rfemur -27.3652 -2.62352 19.243
rtibia 26.6346
rfoot -13.7853 -2.84522
rtoes 11.0727
lfemur -25.0334 7.71304 -19.7693
ltibia 21.9984
lfoot -12.0758 9.46849
ltoes 7.762
775
root 0.779143 17.6332 -10.1702 7.60201 -5.52671 -1.70642
lowerback 4.61855 -1.53902 -4.06649
upperback 4.22901 -2.18526 1.19531
thorax 1.97509 -1.21739 3.57043
lowerneck -8.90118 -7.03971 -4.9873
upperneck 4.98278 -9.22576 5.38832
head 3.78118 -4.45849 2.0948
rclavicle -4.67144e-015 -3.18055e-015
rhumerus -23.0004 -5.05425 -86.05
rradius 26.9788
rwrist 27.3007
rhand -18.2299 -25.6085
rfingers 7.12502
rthumb 8.04847 -55.4353
lclavicle -4.67144e-015 -3.18055e-015
lhumerus -17.1459 -3.08946 84.5994
lradius 22.4564
lwrist 12.1901
lhand -29.1179 -5.62191
lfingers 7.12502
lthumb -2.46553 24.3436
rfemur -27.5119 -3.10504 19.4952
rtibia 27.2105
rfoot -14.0794 -3.40191
rtoes 10.6753
lfemur -25.0824 7.70106 -19.7184
ltibia 21.9273
lfoot -12.3778 9.7269
ltoes 7.66521
776
root 0.771989 17.6354 -10.208 7.58796 -5.58449 -1.72303
lowerback 4.61251 -1.52017 -3.99867
upperback 4.21693 -2.15832 1.20818
thorax 1.96094 -1.20187 3.54509
lowerneck -8.87797 -7.12454 -5.03249
upperneck 4.68961 -9.32913 5.46181
head 3.68698 -4.51035 2.12333
rclavicle 3.27001e-014 9.54166e-015
rhumerus -23.073 -5.08574 -86.0282
rradius 26.9489
rwrist 27.3308
rhand -18.2053 -25.5882
rfingers 7.12502
rthumb 8.07223 -55.414
lclavicle 3.27001e-014 9.54166e-015
lhumerus -17.4819 -3.21529 84.562
lradius 22.639
lwrist 12.6738
lhand -29.1835 -5.67509
lfingers 7.12502
lthumb -2.5289 24.2897
rfemur -27.6399 -3.59552 19.7374
rtibia 27.8941
rfoot -14.3937 -3.97482
rtoes 10.2265
lfemur -25.1361 7.64504 -19.6669
ltibia 21.8804
lfoot -12.6872 9.99319
ltoes 7.57374
777
root 0.76396 17.6364 -10.2461 7.56706 -5.62178 -1.72092
lowerback 4.60688 -1.50433 -3.9411
upperback 4.20519 -2.13563 1.21875
thorax 1.94771 -1.18873 3.5232
lowerneck -8.8544 -7.20742 -5.08192
upperneck 4.40811 -9.42886 5.52454
head 3.5966 -4.56089 2.14926
rclavicle -1.2424e-014 -1.35174e-014
rhumerus -23.1388 -5.11506 -86.0032
rradius 26.9228
rwrist 27.3573
rhand -18.1916 -25.5834
rfingers 7.12502
rthumb 8.0854 -55.4088
lclavicle -1.2424e-014 -1.35174e-014
lhumerus -17.8304 -3.34215 84.5369
lradius 22.8057
lwrist 13.1161
lhand -29.247 -5.70027
lfingers 7.12502
lthumb -2.59026 24.2637
rfemur -27.7475 -4.06523 19.9477
rtibia 28.6779
rfoot -14.7589 -4.53475
rtoes 9.6832
lfemur -25.1986 7.55289 -19.6282
ltibia 21.856
lfoot -13.0016 10.2671
ltoes 7.48541
778
root 0.755029 17.6363 -10.2845 7.53636 -5.63982 -1.70854
lowerback 4.60415 -1.4904 -3.88666
upperback 4.19465 -2.11565 1.22995
thorax 1.93457 -1.17707 3.50385
lowerneck -8.82222 -7.28835 -5.1411
upperneck 4.13306 -9.52495 5.58229
head 3.50734 -4.6101 2.17583
rclavicle -1.69961e-014 1.74931e-014
rhumerus -23.197 -5.14414 -85.9727
rradius 26.8984
rwrist 27.3798
rhand -18.1914 -25.5725
rfingers 7.12502
rthumb 8.08559 -55.3978
lclavicle -1.69961e-014 1.74931e-014
lhumerus -18.1878 -3.46042 84.5238
lradius 22.9502
lwrist 13.5018
lhand -29.3147 -5.71321
lfingers 7.12502
lthumb -2.65563 24.25
rfemur -27.8237 -4.499 20.1283
rtibia 29.5482
rfoot -15.1733 -5.04186
rtoes 9.00695
lfemur -25.2658 7.43515 -19.5939
ltibia 21.8524
lfoot -13.3232 10.5388
ltoes 7.40213
779
root 0.744891 17.6353 -10.3234 7.49572 -5.63874 -1.68529
lowerback 4.60357 -1.47918 -3.83852
upperback 4.18577 -2.0995 1.24033
thorax 1.92257 -1.16753 3.48732
lowerneck -8.78445 -7.36712 -5.20425
upperneck 3.86491 -9.61768 5.63346
head 3.41945 -4.658 2.20137
rclavicle 1.44119e-014 -6.36111e-015
rhumerus -23.2471 -5.17639 -85.9398
rradius 26.8733
rwrist 27.4063
rhand -18.1974 -25.5607
rfingers 7.12502
rthumb 8.07977 -55.3862
lclavicle 1.44119e-014 -6.36111e-015
lhumerus -18.5518 -3.56312 84.5182
lradius 23.0704
lwrist 13.8212
lhand -29.3831 -5.69452
lfingers 7.12502
lthumb -2.72169 24.2679
rfemur -27.8611 -4.88488 20.2735
rtibia 30.4901
rfoot -15.6295 -5.47754
rtoes 8.14967
lfemur -25.3353 7.30302 -19.5659
ltibia 21.8638
lfoot -13.647 10.7996
ltoes 7.33696
780
root 0.733501 17.6337 -10.3624 7.4414 -5.62422 -1.65038
lowerback 4.60088 -1.46989 -3.79831
upperback 4.18093 -2.08602 1.24892
thorax 1.91647 -1.15969 3.4733
lowerneck -8.73258 -7.44239 -5.27417
upperneck 3.59682 -9.70546 5.68313
head 3.32933 -4.70382 2.22855
rclavicle 1.64991e-014 1.2921e-014
rhumerus -23.2882 -5.21127 -85.9063
rradius 26.8476
rwrist 27.44
rhand -18.202 -25.5627
rfingers 7.12502
rthumb 8.07534 -55.3884
lclavicle 1.64991e-014 1.2921e-014
lhumerus -18.9163 -3.64684 84.5193
lradius 23.1546
lwrist 14.0732
lhand -29.4547 -5.64425
lfingers 7.12502
lthumb -2.79083 24.3172
rfemur -27.8454 -5.22068 20.3801
rtibia 31.4865
rfoot -16.1196 -5.8247
rtoes 7.07997
lfemur -25.3979 7.17184 -19.5473
ltibia 21.8838
lfoot -13.9749 11.0384
ltoes 7.29096
781
root 0.720793 17.6314 -10.4015 7.37007 -5.59046 -1.60525
lowerback 4.60013 -1.46359 -3.76518
upperback 4.18205 -2.0767 1.25654
thorax 1.91612 -1.15433 3.46231
lowerneck -8.66729 -7.51704 -5.3525
upperneck 3.3269 -9.79214 5.73435
head 3.23707 -4.74937 2.25841
rclavicle 2.77305e-014 1.19271e-015
rhumerus -23.3142 -5.25151 -85.8706
rradius 26.812
rwrist 27.486
rhand -18.2086 -25.5622
rfingers 7.12502
rthumb 8.06903 -55.3882
lclavicle 2.77305e-014 1.19271e-015
lhumerus -19.2787 -3.71054 84.5251
lradius 23.2083
lwrist 14.2598
lhand -29.4941 -5.50997
lfingers 7.12502
lthumb -2.82894 24.451
rfemur -27.7663 -5.5076 20.4471
rtibia 32.5244
rfoot -16.6231 -6.08124
rtoes 5.76546
lfemur -25.4466 7.05188 -19.5393
ltibia 21.9015
lfoot -14.2936 11.2447
ltoes 7.22835
782
root 0.706885 17.6288 -10.4403 7.27976 -5.53083 -1.54886
lowerback 4.59745 -1.46067 -3.73561
upperback 4.19204 -2.0718 1.26045
thorax 1.92645 -1.15158 3.44936
lowerneck -8.58652 -7.59387 -5.43403
upperneck 3.05051 -9.88218 5.78947
head 3.14077 -4.79675 2.29065
rclavicle -3.53837e-014 2.18663e-015
rhumerus -23.3241 -5.30228 -85.834
rradius 26.7665
rwrist 27.5403
rhand -18.2173 -25.5753
rfingers 7.12502
rthumb 8.06066 -55.4016
lclavicle -3.53837e-014 2.18663e-015
lhumerus -19.636 -3.76092 84.5335
lradius 23.2356
lwrist 14.3897
lhand -29.4896 -5.30445
lfingers 7.12502
lthumb -2.82454 24.6566
rfemur -27.6153 -5.75444 20.4732
rtibia 33.593
rfoot -17.1196 -6.24606
rtoes 4.18004
lfemur -25.4742 6.94753 -19.5445
ltibia 21.9083
lfoot -14.6007 11.4052
ltoes 7.14933
783
root 0.691773 17.6259 -10.479 7.17407 -5.44233 -1.47963
lowerback 4.58721 -1.46357 -3.71128
upperback 4.21182 -2.07439 1.26079
thorax 1.9519 -1.15313 3.43542
lowerneck -8.48337 -7.67356 -5.52419
upperneck 2.76201 -9.97626 5.85222
head 3.03794 -4.84643 2.32775
rclavicle 2.42517e-014 -1.31198e-014
rhumerus -23.3169 -5.351 -85.7999
rradius 26.7195
rwrist 27.5957
rhand -18.2268 -25.5912
rfingers 7.12502
rthumb 8.05143 -55.4179
lclavicle 2.42517e-014 -1.31198e-014
lhumerus -19.9821 -3.78702 84.5426
lradius 23.2317
lwrist 14.4539
lhand -29.458 -5.06446
lfingers 7.12502
lthumb -2.79399 24.897
rfemur -27.3951 -5.96534 20.4572
rtibia 34.6843
rfoot -17.5807 -6.32805
rtoes 2.32775
lfemur -25.4821 6.86614 -19.5671
ltibia 21.8966
lfoot -14.8855 11.5218
ltoes 7.01725
784
root 0.675662 17.6227 -10.5177 7.05826 -5.31046 -1.40077
lowerback 4.57273 -1.475 -3.68747
upperback 4.23271 -2.08817 1.26089
thorax 1.98186 -1.16037 3.42161
lowerneck -8.35951 -7.7577 -5.62032
upperneck 2.47229 -10.077 5.91844
head 2.93245 -4.89966 2.36754
rclavicle -1.6847e-014 -1.0138e-014
rhumerus -23.3039 -5.39932 -85.7607
rradius 26.6641
rwrist 27.6454
rhand -18.242 -25.6143
rfingers 7.12502
rthumb 8.03675 -55.4415
lclavicle -1.6847e-014 -1.0138e-014
lhumerus -20.3338 -3.78278 84.5546
lradius 23.2064
lwrist 14.4486
lhand -29.4075 -4.88042
lfingers 7.12502
lthumb -2.74524 25.0817
rfemur -27.1103 -6.15699 20.4055
rtibia 35.7913
rfoot -17.9934 -6.33004
rtoes 0.299053
lfemur -25.4761 6.80432 -19.6053
ltibia 21.8623
lfoot -15.1378 11.5939
ltoes 6.84403
785
root 0.658263 17.6195 -10.5563 6.93443 -5.14066 -1.31654
lowerback 4.55111 -1.49376 -3.6616
upperback 4.2561 -2.11136 1.2595
thorax 2.01908 -1.17241 3.40503
lowerneck -8.21797 -7.84554 -5.7173
upperneck 2.1825 -10.1835 5.98263
head 2.82451 -4.95609 2.40726
rclavicle 1.26725e-014 -1.98785e-015
rhumerus -23.2857 -5.44397 -85.7231
rradius 26.6103
rwrist 27.6895
rhand -18.2674 -25.6344
rfingers 7.12502
rthumb 8.01222 -55.4625
lclavicle 1.26725e-014 -1.98785e-015
lhumerus -20.6752 -3.76977 84.567
lradius 23.1476
lwrist 14.3978
lhand -29.3781 -4.82502
lfingers 7.12502
lthumb -2.71691 25.1374
rfemur -26.7638 -6.32608 20.3259
rtibia 36.9057
rfoot -18.3565 -6.2659
rtoes -1.76553
lfemur -25.4565 6.76862 -19.6536
ltibia 21.8047
lfoot -15.3506 11.6375
ltoes 6.63729
